<svg xmlns="http://www.w3.org/2000/svg" fill="none" viewBox="0 0 27 28"><path fill="currentColor" d="M13.5.604C6.046.604 0 6.802 0 14.446 0 20.56 3.868 25.75 9.233 27.58c.674.128.892-.301.892-.665v-2.577c-3.755.837-4.537-1.634-4.537-1.634-.614-1.6-1.5-2.025-1.5-2.025-1.225-.86.094-.84.094-.84 1.355.096 2.068 1.426 2.068 1.426 1.204 2.115 3.158 1.504 3.929 1.15.12-.894.47-1.505.857-1.85-2.998-.352-6.15-1.539-6.15-6.841 0-1.512.527-2.747 1.39-3.716-.14-.349-.601-1.757.132-3.663 0 0 1.134-.371 3.714 1.419 1.076-.307 2.23-.46 3.378-.466 1.148.006 2.303.16 3.382.466 2.577-1.79 3.709-1.419 3.709-1.419.735 1.907.272 3.315.133 3.663.866.97 1.389 2.205 1.389 3.716 0 5.316-3.158 6.487-6.164 6.83.484.428.926 1.27.926 2.562v3.799c0 .367.216.8.901.664C23.136 25.746 27 20.559 27 14.446 27 6.802 20.955.604 13.5.604Z"></path></svg>