<svg xmlns="http://www.w3.org/2000/svg" fill="none" viewBox="0 0 27 27"><path fill="currentColor" d="M13.5 3.447c3.605 0 4.032.013 5.455.076 1.316.057 2.031.27 2.507.447.63.236 1.08.518 1.552.973.473.455.765.888 1.01 1.494.185.459.405 1.147.465 2.414.065 1.371.078 1.782.078 5.253 0 3.472-.013 3.883-.078 5.254-.06 1.267-.28 1.955-.465 2.414a4.018 4.018 0 0 1-1.01 1.494 4.2 4.2 0 0 1-1.552.973c-.476.178-1.19.39-2.507.447-1.423.063-1.85.076-5.455.076s-4.032-.013-5.455-.076c-1.316-.057-2.031-.27-2.507-.447a4.2 4.2 0 0 1-1.552-.973 4.017 4.017 0 0 1-1.01-1.494c-.185-.459-.405-1.147-.465-2.414-.065-1.371-.079-1.782-.079-5.254 0-3.47.014-3.882.08-5.253.06-1.267.28-1.955.464-2.414a4.016 4.016 0 0 1 1.01-1.494 4.202 4.202 0 0 1 1.552-.973c.476-.178 1.19-.39 2.507-.447 1.423-.063 1.85-.076 5.455-.076Zm0-2.343c-3.666 0-4.126.015-5.566.079-1.437.063-2.418.283-3.277.604a6.649 6.649 0 0 0-2.391 1.5A6.353 6.353 0 0 0 .709 5.588C.375 6.416.147 7.361.08 8.745.015 10.13 0 10.574 0 14.105c0 3.53.015 3.973.081 5.36.066 1.383.294 2.328.628 3.155.345.855.806 1.58 1.557 2.303a6.648 6.648 0 0 0 2.39 1.499c.86.321 1.841.541 3.278.604 1.44.064 1.9.079 5.566.079s4.126-.015 5.566-.079c1.437-.063 2.418-.283 3.277-.604a6.648 6.648 0 0 0 2.391-1.5 6.353 6.353 0 0 0 1.557-2.302c.334-.827.562-1.772.628-3.156.066-1.386.081-1.829.081-5.36 0-3.53-.015-3.973-.081-5.36-.066-1.383-.294-2.328-.628-3.155a6.353 6.353 0 0 0-1.557-2.303 6.648 6.648 0 0 0-2.391-1.499c-.859-.321-1.84-.541-3.277-.604-1.44-.064-1.9-.079-5.566-.079Zm0 6.325c-3.829 0-6.932 2.989-6.932 6.675 0 3.687 3.103 6.676 6.932 6.676s6.932-2.989 6.932-6.676c0-3.686-3.103-6.675-6.932-6.675Zm0 11.009c-2.485 0-4.5-1.94-4.5-4.333 0-2.394 2.015-4.334 4.5-4.334s4.5 1.94 4.5 4.333c0 2.394-2.015 4.334-4.5 4.334Zm8.826-11.273c0 .862-.725 1.56-1.62 1.56-.894 0-1.62-.698-1.62-1.56 0-.862.726-1.56 1.62-1.56.895 0 1.62.698 1.62 1.56Z"></path></svg>